<?xml version="1.0" encoding="UTF-8"?><svg id="Capa_1" xmlns="http://www.w3.org/2000/svg" viewBox="0 0 309 100"><defs><style>.cls-1,.cls-2{fill:#fff;}.cls-3{fill:#9ed327;}.cls-4{fill:#10cbc2;}.cls-5{fill:#3c8e00;}.cls-2{isolation:isolate;opacity:.38;}</style></defs><g><path class="cls-1" d="M31.39,83.98L8.96,31.48c-.36-.85,.26-1.8,1.19-1.8h15.5c.53,0,1,.32,1.2,.81l12.12,29.97c.44,1.08,1.96,1.08,2.4,0l12.12-29.97c.2-.49,.67-.81,1.2-.81h15.08c.93,0,1.55,.95,1.19,1.8l-22.43,52.5c-.2,.48-.67,.78-1.19,.78h-14.75c-.52,0-.99-.31-1.19-.78Z"/><path class="cls-1" d="M85.13,24.58c-2.57,0-4.76-.9-6.56-2.71-1.81-1.8-2.71-3.99-2.71-6.56s.9-4.75,2.71-6.56c1.8-1.8,3.99-2.71,6.56-2.71s4.75,.9,6.56,2.71,2.71,3.99,2.71,6.56-.9,4.76-2.71,6.56-3.99,2.71-6.56,2.71Zm-8.43,60.18V30.97c0-.71,.58-1.29,1.29-1.29h14.28c.71,0,1.29,.58,1.29,1.29v52.5c0,.71-.58,1.29-1.29,1.29h-15.58"/><path class="cls-1" d="M211.83,85.8c-5.48,0-10.43-1.25-14.84-3.75s-7.9-5.92-10.46-10.26c-2.57-4.34-3.85-9.18-3.85-14.53s1.28-10.27,3.85-14.58c2.57-4.3,6.06-7.72,10.46-10.26s9.35-3.8,14.84-3.8c4.51,0,8.82,.89,12.91,2.66,3.71,1.6,6.9,3.81,9.58,6.64,.48,.5,.47,1.29,0,1.78l-8.52,8.86c-.51,.53-1.36,.53-1.87,0-1.65-1.71-3.32-3-5.02-3.85-2.01-1.01-4.23-1.51-6.66-1.51s-4.62,.61-6.56,1.82-3.47,2.88-4.58,5c-1.11,2.12-1.67,4.53-1.67,7.24s.57,5.02,1.72,7.13c1.14,2.12,2.73,3.78,4.74,5s4.27,1.82,6.77,1.82c2.29,0,4.41-.49,6.35-1.46,1.62-.81,3.19-1.98,4.71-3.51,.51-.52,1.35-.5,1.85,.02l8.21,8.56c.48,.5,.48,1.28,0,1.78-2.62,2.76-5.74,4.94-9.38,6.53-4.03,1.77-8.23,2.66-12.6,2.66Z"/><path class="cls-1" d="M262.85,85.8c-4.3,0-8.1-.94-11.4-2.81s-5.88-4.49-7.76-7.86-2.81-7.2-2.81-11.51V30.97c0-.71,.58-1.29,1.29-1.29h14.28c.71,0,1.29,.58,1.29,1.29v30.36c0,2.99,.92,5.4,2.76,7.24,1.84,1.84,4.25,2.76,7.24,2.76,2.15,0,4.06-.38,5.73-1.14,1.51-.69,2.8-1.65,3.85-2.85,.2-.23,.31-.53,.31-.84V30.97c0-.71,.58-1.29,1.29-1.29h14.28c.71,0,1.29,.58,1.29,1.29v52.5c0,.71-.58,1.29-1.29,1.29h-14.28c-.71,0-1.29-.58-1.29-1.29h0c0-1.01-1.1-1.63-1.96-1.1-3.73,2.29-8,3.44-12.82,3.44Z"/></g><path id="Trazado_12962" class="cls-5" d="M160.21,70.11c-.21-.5-17.4-34.58-17.68-35.04-2.38-5.72-8.95-8.42-14.67-6.03-5.72,2.38-8.42,8.95-6.03,14.67,.21,.51,.46,.99,.74,1.46,.21,.5,16.67,33.11,16.94,33.58,1.58,6.05,7.76,9.68,13.81,8.1s9.68-7.76,8.1-13.81c-.27-1.02-.68-2.01-1.22-2.92"/><path id="Trazado_12963" class="cls-3" d="M140.35,45.68c4.24-4.52,4.01-11.61-.51-15.85-4.52-4.24-11.61-4.01-15.85,.51-.37,.39-.71,.82-1.02,1.26-.37,.39-28.29,34.8-28.6,35.23-4.24,4.51-4.02,11.61,.49,15.85,4.51,4.24,11.61,4.02,15.85-.49,.38-.4,.73-.83,1.04-1.28,.37-.39,28.29-34.8,28.6-35.23"/><path id="Trazado_12964" class="cls-4" d="M188.39,47.61c4.24-4.52,4.01-11.61-.51-15.85s-11.61-4.01-15.85,.51c-.37,.39-.71,.82-1.02,1.26-.37,.39-28.29,34.8-28.6,35.23-4.24,4.51-4.02,11.61,.49,15.85,4.51,4.24,11.61,4.02,15.85-.49,.38-.4,.73-.83,1.04-1.28,.37-.39,28.29-34.8,28.6-35.23"/><circle id="Elipse_73" class="cls-2" cx="151.17" cy="75.86" r="8.91"/><circle id="Elipse_73-2" class="cls-2" cx="132.13" cy="37.8" r="8.91"/></svg>