<?xml version="1.0" encoding="utf-8"?>
<!-- Generator: Adobe Illustrator 26.5.0, SVG Export Plug-In . SVG Version: 6.00 Build 0)  -->
<svg version="1.1" id="Capa_1" xmlns="http://www.w3.org/2000/svg" xmlns:xlink="http://www.w3.org/1999/xlink" x="0px" y="0px"
	 viewBox="0 0 32 32" style="enable-background:new 0 0 32 32;" xml:space="preserve">
<style type="text/css">
	.st0{clip-path:url(#SVGID_00000109027668505818892180000016797365055887863199_);}
	.st1{fill:#FFDA44;}
	.st2{fill:#D80027;}
	.st3{fill:#0052B4;}
</style>
<g>
	<defs>
		<circle id="SVGID_1_" cx="16" cy="16" r="16"/>
	</defs>
	<clipPath id="SVGID_00000144297717298098883630000013261582522222617474_">
		<use xlink:href="#SVGID_1_"  style="overflow:visible;"/>
	</clipPath>
	<g style="clip-path:url(#SVGID_00000144297717298098883630000013261582522222617474_);">
		<g>
			<path class="st1" d="M-0.01,16.13c0-8.76,7.1-15.87,15.87-15.87s15.87,7.1,15.87,15.87l-15.87,1.38L-0.01,16.13z"/>
		</g>
		<path class="st2" d="M1.92,24.07C4.67,28.81,9.79,32,15.66,32s11-3.19,13.74-7.93l-13.74-1.03L1.92,24.07z"/>
		<path class="st3" d="M29.41,24.07c1.35-2.33,2.12-5.04,2.12-7.93H-0.2c0,2.89,0.77,5.6,2.12,7.93H29.41z"/>
		<rect x="-4" y="-1" class="st1" width="43" height="17"/>
		<rect x="-9" y="16" class="st3" width="52" height="8"/>
		<rect x="-6" y="24" class="st2" width="52" height="8"/>
	</g>
</g>
</svg>
