<svg xmlns="http://www.w3.org/2000/svg" width="32.484" height="28.877" viewBox="0 0 32.484 28.877">
  <g id="Grupo_26415" data-name="Grupo 26415" transform="translate(-556.015 -249.279)">
    <g id="Grupo_26413" data-name="Grupo 26413" transform="translate(0 -26)">
      <ellipse id="Elipse_557" data-name="Elipse 557" cx="5" cy="6" rx="5" ry="6" transform="translate(576 290)" fill="#033541"/>
      <g id="memo-circle-check-duotone" transform="translate(556.016 275.279)">
        <path id="Trazado_14197" data-name="Trazado 14197" d="M288,232.122a8.121,8.121,0,1,1,8.121,8.122A8.123,8.123,0,0,1,288,232.122Zm11.917-1.168a.9.9,0,0,0-1.274-1.275l-3.423,3.423-1.619-1.619a.9.9,0,1,0-1.275,1.275l2.256,2.256a.9.9,0,0,0,1.275,0Z" transform="translate(-271.759 -211.367)" fill="#ebc133"/>
        <path id="Trazado_14198" data-name="Trazado 14198" d="M18.047,0a3.611,3.611,0,0,1,3.609,3.61V11.2a9.934,9.934,0,0,0-3.062,17.636,4.305,4.305,0,0,1-.547.039H3.609A3.611,3.611,0,0,1,0,25.267V3.61A3.609,3.609,0,0,1,3.609,0Z" transform="translate(-0.001 0)" fill="#02888e"/>
      </g>
      <path id="Trazado_14263" data-name="Trazado 14263" d="M-19964.758-7036.092h14.916" transform="translate(20524.41 7319.679)" fill="#fff" stroke="#fbfbfb" stroke-linecap="round" stroke-width="1.3" stroke-dasharray="2 2"/>
      <path id="Trazado_14264" data-name="Trazado 14264" d="M-19964.758-7036.092h10.646" transform="translate(20524.41 7324.188)" fill="#fff" stroke="#fbfbfb" stroke-linecap="round" stroke-width="1.3" stroke-dasharray="2 2"/>
      <path id="Trazado_14265" data-name="Trazado 14265" d="M-19964.758-7036.092h8.684" transform="translate(20524.41 7328.696)" fill="#fff" stroke="#fbfbfb" stroke-linecap="round" stroke-width="1.3" stroke-dasharray="2 2"/>
      <path id="Trazado_14266" data-name="Trazado 14266" d="M-19964.758-7036.092h8.684" transform="translate(20524.41 7333.205)" fill="#fff" stroke="#fbfbfb" stroke-linecap="round" stroke-width="1.3" stroke-dasharray="2 2"/>
    </g>
  </g>
</svg>
