<svg xmlns="http://www.w3.org/2000/svg" width="37.059" height="32.733" viewBox="0 0 37.059 32.733">
  <g id="Grupo_26018" data-name="Grupo 26018" transform="translate(-648.439 -371.596)">
    <g id="Grupo_25667" data-name="Grupo 25667">
      <path id="Trazado_14263" data-name="Trazado 14263" d="M-19964.76-7036.092H-19929" transform="translate(20613.85 7439.771)" fill="#ebc133" stroke="#033541" stroke-linecap="round" stroke-width="1.3" stroke-dasharray="3 3"/>
      <g id="building-duotone" transform="translate(653.807 371.596)">
        <path id="Trazado_14155" data-name="Trazado 14155" d="M66.79,96a.933.933,0,0,1,.93.93v1.86a.933.933,0,0,1-.93.93H64.93a.931.931,0,0,1-.93-.93V96.93a.931.931,0,0,1,.93-.93Zm0,7.44a.933.933,0,0,1,.93.93v1.86a.933.933,0,0,1-.93.93H64.93a.931.931,0,0,1-.93-.93v-1.86a.931.931,0,0,1,.93-.93Zm5.58,0a.933.933,0,0,1,.93.93v1.86a.933.933,0,0,1-.93.93H70.51a.933.933,0,0,1-.93-.93v-1.86a.933.933,0,0,1,.93-.93Zm2.79.93a.933.933,0,0,1,.93-.93h1.86a.933.933,0,0,1,.93.93v1.86a.933.933,0,0,1-.93.93H76.09a.933.933,0,0,1-.93-.93Zm-5.58-7.44a.933.933,0,0,1,.93-.93h1.86a.933.933,0,0,1,.93.93v1.86a.933.933,0,0,1-.93.93H70.51a.933.933,0,0,1-.93-.93ZM77.95,96a.933.933,0,0,1,.93.93v1.86a.933.933,0,0,1-.93.93H76.09a.933.933,0,0,1-.93-.93V96.93a.933.933,0,0,1,.93-.93Z" transform="translate(-60.28 -90.42)" fill="#fff"/>
        <path id="Trazado_14156" data-name="Trazado 14156" d="M19.53,0a2.79,2.79,0,0,1,2.79,2.79V28.528c0,1.54-1.25,1.232-2.79,1.232H13.95V25.11a2.79,2.79,0,1,0-5.58,0v4.65H2.79c-1.541,0-2.79.308-2.79-1.232V2.79A2.79,2.79,0,0,1,2.79,0ZM3.72,15.81a.931.931,0,0,0,.93.93H6.51a.933.933,0,0,0,.93-.93V13.95a.933.933,0,0,0-.93-.93H4.65a.931.931,0,0,0-.93.93Zm6.51-2.79a.933.933,0,0,0-.93.93v1.86a.933.933,0,0,0,.93.93h1.86a.933.933,0,0,0,.93-.93V13.95a.933.933,0,0,0-.93-.93Zm4.65,2.79a.933.933,0,0,0,.93.93h1.86a.933.933,0,0,0,.93-.93V13.95a.933.933,0,0,0-.93-.93H15.81a.933.933,0,0,0-.93.93ZM4.65,5.58a.931.931,0,0,0-.93.93V8.37a.931.931,0,0,0,.93.93H6.51a.933.933,0,0,0,.93-.93V6.51a.933.933,0,0,0-.93-.93ZM9.3,8.37a.933.933,0,0,0,.93.93h1.86a.933.933,0,0,0,.93-.93V6.51a.933.933,0,0,0-.93-.93H10.23a.933.933,0,0,0-.93.93Zm6.51-2.79a.933.933,0,0,0-.93.93V8.37a.933.933,0,0,0,.93.93h1.86a.933.933,0,0,0,.93-.93V6.51a.933.933,0,0,0-.93-.93Z" fill="#02888e"/>
      </g>
    </g>
  </g>
</svg>
